<mxfile host="app.diagrams.net" modified="2021-01-14T15:37:21.086Z" agent="5.0 (Macintosh; Intel Mac OS X 11_1_0) AppleWebKit/537.36 (KHTML, like Gecko) Chrome/87.0.4280.88 Safari/537.36" etag="rTUA1uqIStjZGCnElTOL" version="14.2.3" type="github">
  <diagram id="d2OdtrxELNwEUdIxPf-U" name="第 1 页">
    <mxGraphModel dx="1298" dy="809" grid="1" gridSize="10" guides="1" tooltips="1" connect="1" arrows="1" fold="1" page="1" pageScale="1" pageWidth="827" pageHeight="1169" math="0" shadow="0">
      <root>
        <mxCell id="0" />
        <mxCell id="1" parent="0" />
        <mxCell id="3iFWIvMO1bsBOmXjrH6Q-2" value="" style="edgeStyle=orthogonalEdgeStyle;orthogonalLoop=1;jettySize=auto;html=1;jumpStyle=none;" edge="1" parent="1" source="I-_NCsPQKvEyuis4sSRD-2" target="3iFWIvMO1bsBOmXjrH6Q-1">
          <mxGeometry relative="1" as="geometry" />
        </mxCell>
        <mxCell id="I-_NCsPQKvEyuis4sSRD-2" value="" style="whiteSpace=wrap;html=1;fillColor=#f0a30a;strokeColor=#BD7000;fontColor=#ffffff;" parent="1" vertex="1">
          <mxGeometry x="70" y="220" width="120" height="60" as="geometry" />
        </mxCell>
        <mxCell id="3iFWIvMO1bsBOmXjrH6Q-3" style="edgeStyle=orthogonalEdgeStyle;orthogonalLoop=1;jettySize=auto;html=1;entryX=0.5;entryY=1;entryDx=0;entryDy=0;" edge="1" parent="1" source="3iFWIvMO1bsBOmXjrH6Q-1" target="I-_NCsPQKvEyuis4sSRD-2">
          <mxGeometry relative="1" as="geometry" />
        </mxCell>
        <mxCell id="3iFWIvMO1bsBOmXjrH6Q-1" value="" style="whiteSpace=wrap;html=1;fillColor=#f0a30a;strokeColor=#BD7000;fontColor=#ffffff;" vertex="1" parent="1">
          <mxGeometry x="620" y="450" width="120" height="100" as="geometry" />
        </mxCell>
        <mxCell id="3iFWIvMO1bsBOmXjrH6Q-5" value="&lt;h1&gt;Heading&lt;/h1&gt;&lt;p&gt;Lorem ipsum dolor sit amet, consectetur adipisicing elit, sed do eiusmod tempor incididunt ut labore et dolore magna aliqua.&lt;/p&gt;" style="text;html=1;strokeColor=#d79b00;fillColor=#ffe6cc;spacing=5;spacingTop=-20;whiteSpace=wrap;overflow=hidden;" vertex="1" parent="1">
          <mxGeometry x="80" y="60" width="190" height="120" as="geometry" />
        </mxCell>
      </root>
    </mxGraphModel>
  </diagram>
</mxfile>
